<svg width="182" height="64" viewBox="0 0 182 64" fill="none" xmlns="http://www.w3.org/2000/svg">
<path d="M16.693 49.0908V63.832H13.1024V54.9917L9.80592 63.832H6.90809L3.59062 54.9707V63.832H0V49.0908H4.24142L8.37811 59.2964L12.4726 49.0908H16.693Z" fill="white"/>
<path d="M24.6083 64C23.4605 64 22.4245 63.7551 21.5008 63.2652C20.5908 62.7752 19.8699 62.0753 19.338 61.1652C18.82 60.2553 18.561 59.1914 18.561 57.9734C18.561 56.7694 18.827 55.7126 19.359 54.8027C19.8909 53.8787 20.6188 53.1717 21.5428 52.6817C22.4665 52.1918 23.5025 51.9466 24.6503 51.9466C25.7981 51.9466 26.8339 52.1918 27.7578 52.6817C28.6818 53.1717 29.4097 53.8787 29.9417 54.8027C30.4736 55.7126 30.7394 56.7694 30.7394 57.9734C30.7394 59.1772 30.4665 60.2414 29.9207 61.1652C29.3887 62.0753 28.6537 62.7752 27.7159 63.2652C26.7919 63.7551 25.7561 64 24.6083 64ZM24.6083 60.8922C25.2943 60.8922 25.875 60.6403 26.351 60.1364C26.841 59.6323 27.086 58.9114 27.086 57.9734C27.086 57.0355 26.848 56.3146 26.372 55.8105C25.9102 55.3066 25.3363 55.0546 24.6503 55.0546C23.9504 55.0546 23.3695 55.3066 22.9076 55.8105C22.4455 56.3004 22.2146 57.0216 22.2146 57.9734C22.2146 58.9114 22.4387 59.6323 22.8866 60.1364C23.3485 60.6403 23.9224 60.8922 24.6083 60.8922Z" fill="white"/>
<path d="M39.7834 51.9886C41.1553 51.9886 42.2472 52.4366 43.0589 53.3326C43.885 54.2146 44.2978 55.4326 44.2978 56.9864V63.832H40.7284V57.4696C40.7284 56.6854 40.5253 56.0766 40.1193 55.6425C39.7134 55.2087 39.1675 54.9917 38.4816 54.9917C37.7956 54.9917 37.2498 55.2087 36.8438 55.6425C36.4379 56.0766 36.2348 56.6854 36.2348 57.4696V63.832H32.6444V52.1148H36.2348V53.6687C36.5988 53.1507 37.0887 52.7447 37.7048 52.4508C38.3207 52.1427 39.0135 51.9886 39.7834 51.9886Z" fill="white"/>
<path d="M53.3231 60.7873V63.832H51.4962C50.1944 63.832 49.1796 63.5171 48.4517 62.8872C47.7237 62.2432 47.3598 61.2003 47.3598 59.7583V55.0966H45.932V52.1148H47.3598V49.2588H50.9504V52.1148H53.3022V55.0966H50.9504V59.8003C50.9504 60.1503 51.0344 60.4023 51.2023 60.5563C51.3703 60.7104 51.6503 60.7873 52.0423 60.7873H53.3231Z" fill="white"/>
<path d="M66.3677 57.7845C66.3677 58.1204 66.3467 58.4705 66.3048 58.8345H58.1788C58.2347 59.5622 58.4656 60.1223 58.8716 60.5143C59.2915 60.8922 59.8026 61.0812 60.4044 61.0812C61.3003 61.0812 61.9232 60.7033 62.2733 59.9472H66.0948C65.8988 60.7172 65.5417 61.4103 65.0239 62.0262C64.5198 62.6422 63.8829 63.125 63.113 63.4751C62.3431 63.8252 61.4824 64 60.5303 64C59.3825 64 58.3607 63.7551 57.4648 63.2652C56.5689 62.7752 55.869 62.0753 55.3652 61.1652C54.8611 60.2553 54.6092 59.1914 54.6092 57.9734C54.6092 56.7555 54.8543 55.6916 55.3442 54.7817C55.848 53.8716 56.5479 53.1717 57.4438 52.6817C58.3397 52.1918 59.3686 51.9466 60.5303 51.9466C61.6642 51.9466 62.6721 52.1847 63.5541 52.6607C64.4359 53.1368 65.1218 53.8157 65.6117 54.6975C66.1158 55.5795 66.3677 56.6085 66.3677 57.7845ZM62.6931 56.8395C62.6931 56.2235 62.4832 55.7336 62.0633 55.3696C61.6432 55.0056 61.1184 54.8237 60.4883 54.8237C59.8866 54.8237 59.3757 54.9985 58.9556 55.3486C58.5496 55.6987 58.2977 56.1955 58.1998 56.8395H62.6931Z" fill="white"/>
<path d="M75.4219 63.832L71.8525 58.9185V63.832H68.2619V48.293H71.8525V56.8815L75.4009 52.1148H79.8313L74.96 57.9944L79.8735 63.832H75.4219Z" fill="white"/>
<path d="M84.8322 54.0676C85.2521 53.4236 85.7772 52.9197 86.407 52.5558C87.0368 52.1778 87.7369 51.9886 88.5068 51.9886V55.7895H87.5199C86.624 55.7895 85.952 55.9855 85.504 56.3776C85.0561 56.7555 84.8322 57.4276 84.8322 58.3933V63.832H81.2416V52.1148H84.8322V54.0676Z" fill="white"/>
<path d="M92.0286 50.8969C91.3988 50.8969 90.8808 50.7148 90.4748 50.3508C90.083 49.9729 89.887 49.511 89.887 48.9649C89.887 48.4048 90.083 47.9429 90.4748 47.5789C90.8808 47.201 91.3988 47.0121 92.0286 47.0121C92.6447 47.0121 93.1485 47.201 93.5406 47.5789C93.9465 47.9429 94.1494 48.4048 94.1494 48.9649C94.1494 49.511 93.9465 49.9729 93.5406 50.3508C93.1485 50.7148 92.6447 50.8969 92.0286 50.8969ZM93.8135 52.1148V63.832H90.2229V52.1148H93.8135Z" fill="white"/>
<path d="M101.182 64C100.16 64 99.2502 63.8252 98.4522 63.4751C97.6544 63.125 97.0244 62.6492 96.5625 62.0472C96.1006 61.4313 95.8416 60.7453 95.7855 59.9892H99.3341C99.3761 60.3952 99.5651 60.7243 99.901 60.9762C100.237 61.2282 100.65 61.3541 101.14 61.3541C101.588 61.3541 101.931 61.2702 102.169 61.1022C102.421 60.9203 102.547 60.6894 102.547 60.4094C102.547 60.0732 102.372 59.8283 102.022 59.6743C101.672 59.5063 101.105 59.3244 100.321 59.1284C99.4811 58.9324 98.7812 58.7293 98.2212 58.5193C97.6612 58.2954 97.1784 57.9524 96.7724 57.4905C96.3665 57.0145 96.1636 56.3776 96.1636 55.5795C96.1636 54.9077 96.3455 54.2986 96.7094 53.7527C97.0873 53.1927 97.6334 52.7518 98.3472 52.4298C99.0751 52.1078 99.9361 51.9466 100.93 51.9466C102.4 51.9466 103.555 52.3106 104.395 53.0386C105.248 53.7666 105.738 54.7326 105.864 55.9364H102.547C102.491 55.5305 102.309 55.2087 102.001 54.9707C101.707 54.7326 101.315 54.6135 100.825 54.6135C100.405 54.6135 100.083 54.6975 99.859 54.8657C99.6351 55.0195 99.5231 55.2365 99.5231 55.5165C99.5231 55.8525 99.6981 56.1046 100.048 56.2726C100.412 56.4406 100.972 56.6085 101.728 56.7765C102.596 57.0006 103.303 57.2245 103.848 57.4486C104.395 57.6585 104.87 58.0084 105.276 58.4983C105.696 58.9744 105.913 59.6184 105.927 60.4303C105.927 61.1163 105.731 61.7323 105.339 62.2782C104.961 62.8101 104.408 63.23 103.681 63.5381C102.967 63.8462 102.134 64 101.182 64Z" fill="white"/>
<path d="M114.654 60.7873V63.832H112.827C111.526 63.832 110.511 63.5171 109.783 62.8872C109.055 62.2432 108.691 61.2003 108.691 59.7583V55.0966H107.263V52.1148H108.691V49.2588H112.282V52.1148H114.633V55.0966H112.282V59.8003C112.282 60.1503 112.366 60.4023 112.533 60.5563C112.701 60.7104 112.981 60.7873 113.373 60.7873H114.654Z" fill="white"/>
<path d="M135.823 49.343V63.832H134.353V52.2618L129.188 63.832H128.117L122.951 52.3038V63.832H121.482V49.343H123.035L128.642 61.9002L134.248 49.343H135.823Z" fill="white"/>
<path d="M149.53 57.5116C149.53 58.0154 149.516 58.4004 149.488 58.6663H139.976C140.018 59.5344 140.228 60.2763 140.606 60.8922C140.984 61.5082 141.481 61.9771 142.097 62.2992C142.713 62.6072 143.385 62.761 144.113 62.761C145.064 62.761 145.862 62.5301 146.506 62.0682C147.164 61.6063 147.598 60.9833 147.808 60.1994H149.362C149.082 61.3192 148.48 62.2362 147.556 62.9502C146.646 63.6502 145.498 64 144.113 64C143.035 64 142.069 63.7622 141.215 63.2862C140.361 62.7962 139.689 62.1102 139.199 61.2282C138.723 60.3322 138.485 59.2893 138.485 58.0994C138.485 56.9095 138.723 55.8666 139.199 54.9707C139.675 54.0747 140.34 53.3887 141.194 52.9127C142.048 52.4366 143.021 52.1988 144.113 52.1988C145.205 52.1988 146.156 52.4366 146.968 52.9127C147.794 53.3887 148.424 54.0327 148.858 54.8447C149.306 55.6425 149.53 56.5316 149.53 57.5116ZM148.039 57.4696C148.053 56.6156 147.878 55.8876 147.514 55.2856C147.164 54.6836 146.681 54.2285 146.065 53.9207C145.449 53.6126 144.777 53.4588 144.05 53.4588C142.958 53.4588 142.027 53.8086 141.257 54.5085C140.487 55.2087 140.06 56.1955 139.976 57.4696H148.039Z" fill="white"/>
<path d="M151.547 58.0784C151.547 56.9024 151.785 55.8735 152.261 54.9917C152.737 54.0957 153.388 53.4097 154.214 52.9337C155.054 52.4437 155.999 52.1988 157.048 52.1988C158.056 52.1988 158.966 52.4437 159.778 52.9337C160.59 53.4236 161.185 54.0606 161.563 54.8447V48.293H163.033V63.832H161.563V61.2702C161.213 62.0682 160.639 62.7261 159.841 63.2442C159.043 63.7481 158.105 64 157.027 64C155.978 64 155.033 63.7551 154.193 63.2652C153.367 62.7752 152.716 62.0821 152.24 61.1862C151.778 60.2902 151.547 59.2544 151.547 58.0784ZM161.563 58.0994C161.563 57.1754 161.374 56.3634 160.996 55.6635C160.618 54.9636 160.1 54.4245 159.442 54.0466C158.798 53.6687 158.084 53.4798 157.3 53.4798C156.488 53.4798 155.761 53.6616 155.117 54.0256C154.473 54.3896 153.962 54.9216 153.584 55.6215C153.22 56.3075 153.038 57.1265 153.038 58.0784C153.038 59.0163 153.22 59.8422 153.584 60.5563C153.962 61.2562 154.473 61.7953 155.117 62.1732C155.761 62.5372 156.488 62.719 157.3 62.719C158.084 62.719 158.798 62.5301 159.442 62.1522C160.1 61.7743 160.618 61.2352 160.996 60.5353C161.374 59.8354 161.563 59.0234 161.563 58.0994Z" fill="white"/>
<path d="M167.123 50.2038C166.829 50.2038 166.577 50.0988 166.367 49.8889C166.157 49.6789 166.052 49.4199 166.052 49.1118C166.052 48.804 166.157 48.552 166.367 48.356C166.577 48.146 166.829 48.0411 167.123 48.0411C167.417 48.0411 167.669 48.146 167.879 48.356C168.089 48.552 168.194 48.804 168.194 49.1118C168.194 49.4199 168.089 49.6789 167.879 49.8889C167.669 50.0988 167.417 50.2038 167.123 50.2038ZM167.858 52.3668V63.832H166.388V52.3668H167.858Z" fill="white"/>
<path d="M170.514 58.0784C170.514 56.9024 170.745 55.8735 171.207 54.9917C171.683 54.0957 172.334 53.4097 173.16 52.9337C174 52.4437 174.945 52.1988 175.995 52.1988C177.087 52.1988 178.024 52.4508 178.808 52.9547C179.606 53.4588 180.18 54.1025 180.53 54.8867V52.3668H182V63.832H180.53V61.2911C180.166 62.0753 179.585 62.7261 178.787 63.2442C178.003 63.7481 177.066 64 175.974 64C174.938 64 174 63.7551 173.16 63.2652C172.334 62.7752 171.683 62.0821 171.207 61.1862C170.745 60.2902 170.514 59.2544 170.514 58.0784ZM180.53 58.0994C180.53 57.1754 180.341 56.3634 179.963 55.6635C179.585 54.9636 179.067 54.4245 178.409 54.0466C177.765 53.6687 177.052 53.4798 176.268 53.4798C175.456 53.4798 174.728 53.6616 174.084 54.0256C173.44 54.3896 172.929 54.9216 172.551 55.6215C172.187 56.3075 172.005 57.1265 172.005 58.0784C172.005 59.0163 172.187 59.8422 172.551 60.5563C172.929 61.2562 173.44 61.7953 174.084 62.1732C174.728 62.5372 175.456 62.719 176.268 62.719C177.052 62.719 177.765 62.5301 178.409 62.1522C179.067 61.7743 179.585 61.2352 179.963 60.5353C180.341 59.8354 180.53 59.0234 180.53 58.0994Z" fill="white"/>
<path d="M40.9551 30.5943C38.9055 28.5446 38.9055 25.2212 40.9551 23.1712C43.0049 21.1215 46.328 21.1215 48.3778 23.1712C50.4274 25.2212 50.4274 28.5446 48.3778 30.5943C46.328 32.6443 43.0049 32.6443 40.9551 30.5943Z" fill="white"/>
<path d="M38.1178 8.40386C37.8617 8.14744 37.8617 7.73202 38.1178 7.47583C41.9611 3.63254 48.192 3.63254 52.0352 7.47583L72.4474 27.8895C72.7036 28.1457 72.7036 28.5611 72.4474 28.8173C68.6041 32.6608 62.373 32.6608 58.53 28.8173L38.1178 8.40386Z" fill="white"/>
<path d="M103.247 11.3465C102.991 11.0903 102.991 10.6749 103.247 10.4187C107.091 6.57515 113.322 6.57515 117.165 10.4187L134.457 27.7119C134.713 27.968 134.713 28.3835 134.457 28.6399C130.614 32.4832 124.383 32.4832 120.54 28.6399L103.247 11.3465Z" fill="white"/>
<path d="M57.4723 8.40386C57.2159 8.14744 57.2159 7.73202 57.4723 7.47583C61.3153 3.63254 67.5464 3.63254 71.3895 7.47583L91.8017 27.8895C92.0578 28.1457 92.0578 28.5611 91.8017 28.8173C87.9584 32.6608 81.7275 32.6608 77.8843 28.8173L57.4723 8.40386Z" fill="white"/>
<path d="M119.48 8.22434C119.224 7.96815 119.224 7.55273 119.48 7.29654C123.323 3.45301 129.554 3.45301 133.397 7.29654L153.809 27.71C154.065 27.9662 154.065 28.3816 153.809 28.638C149.966 32.4813 143.735 32.4813 139.892 28.638L119.48 8.22434Z" fill="white"/>
<path d="M85.5411 16.7882C83.4915 14.7385 83.4915 11.4151 85.5411 9.36516C87.5909 7.31542 90.914 7.31542 92.9636 9.36516L111.485 27.8878C111.741 28.144 111.741 28.5595 111.485 28.8156C107.642 32.6592 101.411 32.6592 97.5678 28.8156L85.5411 16.7882Z" fill="white"/>
<path d="M93.5585 15.4622C92.109 17.9727 88.8991 18.833 86.3888 17.3834C83.8783 15.9341 83.0183 12.7239 84.4678 10.2135L87.522 4.92268C90.2396 0.21528 96.2582 -1.39758 100.965 1.32023C101.279 1.5014 101.387 1.90267 101.205 2.21642L93.5585 15.4622Z" fill="white"/>
</svg>
